<?xml version="1.0" encoding="UTF-8" standalone="yes"?>
<svg width="80.000008mm" height="79.999992mm" viewBox="0 0 80.000008 79.999992" version="1.2" baseProfile="tiny-ps" xmlns="http://www.w3.org/2000/svg">
  <title>bimi-svg-tiny-12-ps</title>
  <defs id="defs1"/>
  <g id="layer1" transform="translate(-57.843873,-50.851308)">
    <circle id="path1" r="40" cy="90.851303" cx="97.843872" fill="#000000" stroke-width="0.352949"/>
    <path d="m 167.11453,28.315976 q 0,0.862588 -0.46892,1.400982 -0.46893,0.532604 -1.14047,0.798906 l 2.10147,3.38667 h -2.14779 l -1.73675,-3.068265 h -0.53839 v 3.068265 h -1.89885 v -8.023803 h 2.52408 q 1.63834,0 2.47198,0.596286 0.83364,0.596285 0.83364,1.840959 z m -1.95674,0 q 0,-0.578918 -0.34156,-0.839431 -0.33578,-0.266302 -1.00153,-0.266302 h -0.63102 v 2.321461 h 0.70628 q 0.61944,0 0.94363,-0.289459 0.3242,-0.289459 0.3242,-0.926269 z" id="text2" transform="matrix(3.1636561,0,0,3.115736,-431.07323,-13.738418)" font-weight="bold" font-size="11.2889px" font-family="'FiraCode Nerd Font Propo'" fill="#ffffff" stroke-width="9.62521"/>
    <path d="m 108.12661,94.156752 q 2.62049,0 4.44955,0.703487 1.84666,0.6859 3.37674,1.952177 l -2.83153,3.411914 q -1.00247,-0.826599 -2.21599,-1.301453 -1.21351,-0.492441 -2.63808,-0.492441 -1.53008,0 -2.79636,0.879359 -1.26627,0.861775 -2.02252,2.743595 -0.75625,1.86425 -0.75625,4.85407 0,4.39679 1.58285,6.40173 1.60043,1.98735 4.09781,1.98735 1.82906,0 3.04258,-0.6859 1.21351,-0.6859 2.23357,-1.49491 l 2.62049,3.34156 q -1.3718,1.35422 -3.37674,2.32151 -2.00494,0.9673 -4.83647,0.9673 -3.30639,0 -5.87412,-1.45974 -2.55014,-1.47732 -4.009876,-4.32645 -1.442149,-2.86671 -1.442149,-7.05245 0,-4.08023 1.494911,-6.929352 1.512497,-2.849123 4.097814,-4.326446 2.58531,-1.49491 5.80377,-1.49491 z" id="text16" transform="scale(1.0235717,0.97697114)" font-weight="bold" font-size="34.295px" font-family="'FiraCode Nerd Font Propo'" fill="#ffffff" stroke-width="30.3794"/>
  </g>
</svg>